<?xml version="1.0" encoding="UTF-8" standalone="no"?>
<!DOCTYPE svg PUBLIC "-//W3C//DTD SVG 1.1//EN"
 "http://www.w3.org/Graphics/SVG/1.1/DTD/svg11.dtd">
<!-- Generated by graphviz version 12.0.0 (20240704.0754)
 -->
<!-- Title: ./eg/fib.dot Pages: 1 -->
<svg width="304pt" height="550pt"
 viewBox="0.00 0.00 304.00 549.50" xmlns="http://www.w3.org/2000/svg" xmlns:xlink="http://www.w3.org/1999/xlink">
<g id="graph0" class="graph" transform="scale(1 1) rotate(0) translate(4 545.5)">
<title>./eg/fib.dot</title>
<polygon fill="white" stroke="none" points="-4,4 -4,-545.5 300,-545.5 300,4 -4,4"/>
<g id="clust1" class="cluster">
<title>cluster_fib</title>
<polygon fill="lightgrey" stroke="black" points="8,-8 8,-533.5 174,-533.5 174,-8 8,-8"/>
<text text-anchor="middle" x="91" y="-516.2" font-family="Times New Roman,serif" font-size="14.00">fib</text>
</g>
<g id="clust2" class="cluster">
<title>cluster_main</title>
<polygon fill="lightgrey" stroke="black" points="182,-204.25 182,-533.5 288,-533.5 288,-204.25 182,-204.25"/>
<text text-anchor="middle" x="235" y="-516.2" font-family="Times New Roman,serif" font-size="14.00">main</text>
</g>
<!-- fib_ENTRY -->
<g id="node1" class="node">
<title>fib_ENTRY</title>
<ellipse fill="none" stroke="black" cx="124" cy="-483.75" rx="41.58" ry="18"/>
<text text-anchor="middle" x="124" y="-478.32" font-family="Times New Roman,serif" font-size="14.00">ENTRY</text>
</g>
<!-- fib_BB0 -->
<g id="node3" class="node">
<title>fib_BB0</title>
<polygon fill="none" stroke="black" points="98,-393.25 98,-429.25 152,-429.25 152,-393.25 98,-393.25"/>
<text text-anchor="middle" x="124.88" y="-405.82" font-family="Times New Roman,serif" font-size="14.00">[0]</text>
</g>
<!-- fib_ENTRY&#45;&gt;fib_BB0 -->
<g id="edge1" class="edge">
<title>fib_ENTRY&#45;&gt;fib_BB0</title>
<path fill="none" stroke="black" d="M124.25,-465.32C124.35,-457.9 124.48,-449.04 124.6,-440.7"/>
<polygon fill="black" stroke="black" points="128.09,-441.04 124.73,-430.99 121.09,-440.94 128.09,-441.04"/>
</g>
<!-- fib_EXIT -->
<g id="node2" class="node">
<title>fib_EXIT</title>
<ellipse fill="none" stroke="black" cx="48" cy="-34" rx="31.6" ry="18"/>
<text text-anchor="middle" x="48" y="-28.57" font-family="Times New Roman,serif" font-size="14.00">EXIT</text>
</g>
<!-- fib_BB1 -->
<g id="node4" class="node">
<title>fib_BB1</title>
<polygon fill="none" stroke="black" points="100,-285.25 100,-356.25 154,-356.25 154,-285.25 100,-285.25"/>
<text text-anchor="middle" x="127" y="-338.95" font-family="Times New Roman,serif" font-size="14.00">[1]</text>
<text text-anchor="start" x="108" y="-323.2" font-family="Times New Roman,serif" font-size="14.00">a = 0</text>
<text text-anchor="start" x="108" y="-307.45" font-family="Times New Roman,serif" font-size="14.00">b = 1</text>
<text text-anchor="start" x="108" y="-291.7" font-family="Times New Roman,serif" font-size="14.00">i = 1</text>
</g>
<!-- fib_BB0&#45;&gt;fib_BB1 -->
<g id="edge2" class="edge">
<title>fib_BB0&#45;&gt;fib_BB1</title>
<path fill="none" stroke="black" d="M125.4,-392.77C125.56,-385.47 125.76,-376.62 125.96,-367.67"/>
<polygon fill="black" stroke="black" points="129.46,-368 126.18,-357.92 122.46,-367.84 129.46,-368"/>
</g>
<!-- fib_BB2 -->
<g id="node5" class="node">
<title>fib_BB2</title>
<polygon fill="none" stroke="black" points="91.12,-212.25 91.12,-248.25 164.88,-248.25 164.88,-212.25 91.12,-212.25"/>
<text text-anchor="middle" x="128" y="-224.82" font-family="Times New Roman,serif" font-size="14.00">[2 &#45; begin]</text>
</g>
<!-- fib_BB1&#45;&gt;fib_BB2 -->
<g id="edge3" class="edge">
<title>fib_BB1&#45;&gt;fib_BB2</title>
<path fill="none" stroke="black" d="M127.4,-284.77C127.49,-276.56 127.59,-267.9 127.68,-259.99"/>
<polygon fill="black" stroke="black" points="131.17,-260.29 127.79,-250.25 124.17,-260.21 131.17,-260.29"/>
</g>
<!-- fib_BB3 -->
<g id="node6" class="node">
<title>fib_BB3</title>
<polygon fill="none" stroke="black" points="16,-112.12 16,-151.62 80,-151.62 80,-112.12 16,-112.12"/>
<text text-anchor="middle" x="48" y="-134.32" font-family="Times New Roman,serif" font-size="14.00">[3 &#45; end]</text>
<text text-anchor="start" x="24" y="-118.58" font-family="Times New Roman,serif" font-size="14.00">ret b</text>
</g>
<!-- fib_BB2&#45;&gt;fib_BB3 -->
<g id="edge4" class="edge">
<title>fib_BB2&#45;&gt;fib_BB3</title>
<path fill="none" stroke="black" d="M113.7,-212.02C101.87,-197.77 84.83,-177.25 71.08,-160.67"/>
<polygon fill="black" stroke="black" points="73.87,-158.56 64.79,-153.1 68.48,-163.03 73.87,-158.56"/>
</g>
<!-- fib_BB4 -->
<g id="node7" class="node">
<title>fib_BB4</title>
<polygon fill="none" stroke="black" points="97.75,-88.5 97.75,-175.25 166.25,-175.25 166.25,-88.5 97.75,-88.5"/>
<text text-anchor="middle" x="132" y="-157.95" font-family="Times New Roman,serif" font-size="14.00">[4]</text>
<text text-anchor="start" x="105.75" y="-142.2" font-family="Times New Roman,serif" font-size="14.00">t = b</text>
<text text-anchor="start" x="105.75" y="-126.45" font-family="Times New Roman,serif" font-size="14.00">b = a + b</text>
<text text-anchor="start" x="105.75" y="-110.7" font-family="Times New Roman,serif" font-size="14.00">a = t</text>
<text text-anchor="start" x="105.75" y="-94.95" font-family="Times New Roman,serif" font-size="14.00">i = i + 1</text>
</g>
<!-- fib_BB2&#45;&gt;fib_BB4 -->
<g id="edge5" class="edge">
<title>fib_BB2&#45;&gt;fib_BB4</title>
<path fill="none" stroke="black" d="M123.4,-212.02C122.91,-204.86 122.81,-196.13 123.05,-187.1"/>
<polygon fill="black" stroke="black" points="126.54,-187.26 123.45,-177.13 119.55,-186.98 126.54,-187.26"/>
</g>
<!-- fib_BB3&#45;&gt;fib_EXIT -->
<g id="edge6" class="edge">
<title>fib_BB3&#45;&gt;fib_EXIT</title>
<path fill="none" stroke="black" d="M48,-111.93C48,-98.1 48,-79.12 48,-63.47"/>
<polygon fill="black" stroke="black" points="51.5,-63.8 48,-53.8 44.5,-63.8 51.5,-63.8"/>
</g>
<!-- fib_BB4&#45;&gt;fib_BB2 -->
<g id="edge7" class="edge">
<title>fib_BB4&#45;&gt;fib_BB2</title>
<path fill="none" stroke="black" d="M136.94,-175.62C136.7,-184.15 136.18,-192.91 135.4,-200.82"/>
<polygon fill="black" stroke="black" points="131.95,-200.17 134.21,-210.52 138.9,-201.02 131.95,-200.17"/>
</g>
<!-- main_ENTRY -->
<g id="node8" class="node">
<title>main_ENTRY</title>
<ellipse fill="none" stroke="black" cx="235" cy="-483.75" rx="41.58" ry="18"/>
<text text-anchor="middle" x="235" y="-478.32" font-family="Times New Roman,serif" font-size="14.00">ENTRY</text>
</g>
<!-- main_BB0 -->
<g id="node10" class="node">
<title>main_BB0</title>
<polygon fill="none" stroke="black" points="208,-393.25 208,-429.25 262,-429.25 262,-393.25 208,-393.25"/>
<text text-anchor="middle" x="234.88" y="-405.82" font-family="Times New Roman,serif" font-size="14.00">[0]</text>
</g>
<!-- main_ENTRY&#45;&gt;main_BB0 -->
<g id="edge8" class="edge">
<title>main_ENTRY&#45;&gt;main_BB0</title>
<path fill="none" stroke="black" d="M235,-465.32C235,-457.98 235,-449.24 235,-440.99"/>
<polygon fill="black" stroke="black" points="238.5,-440.99 235,-430.99 231.5,-440.99 238.5,-440.99"/>
</g>
<!-- main_EXIT -->
<g id="node9" class="node">
<title>main_EXIT</title>
<ellipse fill="none" stroke="black" cx="235" cy="-230.25" rx="31.6" ry="18"/>
<text text-anchor="middle" x="235" y="-224.82" font-family="Times New Roman,serif" font-size="14.00">EXIT</text>
</g>
<!-- main_BB1 -->
<g id="node11" class="node">
<title>main_BB1</title>
<polygon fill="none" stroke="black" points="190.25,-285.25 190.25,-356.25 279.75,-356.25 279.75,-285.25 190.25,-285.25"/>
<text text-anchor="middle" x="235" y="-338.95" font-family="Times New Roman,serif" font-size="14.00">[1]</text>
<text text-anchor="start" x="198.25" y="-323.2" font-family="Times New Roman,serif" font-size="14.00">param 3</text>
<text text-anchor="start" x="198.25" y="-307.45" font-family="Times New Roman,serif" font-size="14.00">a = call fib, 1</text>
<text text-anchor="start" x="198.25" y="-291.7" font-family="Times New Roman,serif" font-size="14.00">ret a</text>
</g>
<!-- main_BB0&#45;&gt;main_BB1 -->
<g id="edge9" class="edge">
<title>main_BB0&#45;&gt;main_BB1</title>
<path fill="none" stroke="black" d="M235,-392.77C235,-385.47 235,-376.62 235,-367.67"/>
<polygon fill="black" stroke="black" points="238.5,-367.92 235,-357.92 231.5,-367.92 238.5,-367.92"/>
</g>
<!-- main_BB1&#45;&gt;main_EXIT -->
<g id="edge10" class="edge">
<title>main_BB1&#45;&gt;main_EXIT</title>
<path fill="none" stroke="black" d="M235,-284.77C235,-276.56 235,-267.9 235,-259.99"/>
<polygon fill="black" stroke="black" points="238.5,-260.25 235,-250.25 231.5,-260.25 238.5,-260.25"/>
</g>
</g>
</svg>
