<?xml version="1.0" encoding="UTF-8" standalone="no"?>
<!DOCTYPE svg PUBLIC "-//W3C//DTD SVG 1.1//EN"
 "http://www.w3.org/Graphics/SVG/1.1/DTD/svg11.dtd">
<!-- Generated by graphviz version 12.0.0 (20240704.0754)
 -->
<!-- Title: ./eg/fib.dot Pages: 1 -->
<svg width="330pt" height="581pt"
 viewBox="0.00 0.00 330.00 581.00" xmlns="http://www.w3.org/2000/svg" xmlns:xlink="http://www.w3.org/1999/xlink">
<g id="graph0" class="graph" transform="scale(1 1) rotate(0) translate(4 577)">
<title>./eg/fib.dot</title>
<polygon fill="white" stroke="none" points="-4,4 -4,-577 326,-577 326,4 -4,4"/>
<g id="clust1" class="cluster">
<title>cluster_fib</title>
<polygon fill="lightgrey" stroke="black" points="8,-8 8,-565 174,-565 174,-8 8,-8"/>
<text text-anchor="middle" x="91" y="-547.7" font-family="Times New Roman,serif" font-size="14.00">fib</text>
</g>
<g id="clust2" class="cluster">
<title>cluster_main</title>
<polygon fill="lightgrey" stroke="black" points="182,-204.25 182,-565 314,-565 314,-204.25 182,-204.25"/>
<text text-anchor="middle" x="248" y="-547.7" font-family="Times New Roman,serif" font-size="14.00">main</text>
</g>
<!-- fib_ENTRY -->
<g id="node1" class="node">
<title>fib_ENTRY</title>
<ellipse fill="none" stroke="black" cx="124" cy="-515.25" rx="41.58" ry="18"/>
<text text-anchor="middle" x="124" y="-509.82" font-family="Times New Roman,serif" font-size="14.00">ENTRY</text>
</g>
<!-- fib_BB0 -->
<g id="node3" class="node">
<title>fib_BB0</title>
<polygon fill="none" stroke="black" points="98,-424.75 98,-460.75 152,-460.75 152,-424.75 98,-424.75"/>
<text text-anchor="middle" x="124.88" y="-437.32" font-family="Times New Roman,serif" font-size="14.00">[0]</text>
</g>
<!-- fib_ENTRY&#45;&gt;fib_BB0 -->
<g id="edge1" class="edge">
<title>fib_ENTRY&#45;&gt;fib_BB0</title>
<path fill="none" stroke="black" d="M124.25,-496.82C124.35,-489.4 124.48,-480.54 124.6,-472.2"/>
<polygon fill="black" stroke="black" points="128.09,-472.54 124.73,-462.49 121.09,-472.44 128.09,-472.54"/>
</g>
<!-- fib_EXIT -->
<g id="node2" class="node">
<title>fib_EXIT</title>
<ellipse fill="none" stroke="black" cx="48" cy="-34" rx="31.6" ry="18"/>
<text text-anchor="middle" x="48" y="-28.57" font-family="Times New Roman,serif" font-size="14.00">EXIT</text>
</g>
<!-- fib_BB1 -->
<g id="node4" class="node">
<title>fib_BB1</title>
<polygon fill="none" stroke="black" points="100,-301 100,-372 154,-372 154,-301 100,-301"/>
<text text-anchor="middle" x="127" y="-354.7" font-family="Times New Roman,serif" font-size="14.00">[1]</text>
<text text-anchor="start" x="108" y="-338.95" font-family="Times New Roman,serif" font-size="14.00">a = 0</text>
<text text-anchor="start" x="108" y="-323.2" font-family="Times New Roman,serif" font-size="14.00">b = 1</text>
<text text-anchor="start" x="108" y="-307.45" font-family="Times New Roman,serif" font-size="14.00">i = 1</text>
</g>
<!-- fib_BB0&#45;&gt;fib_BB1 -->
<g id="edge2" class="edge">
<title>fib_BB0&#45;&gt;fib_BB1</title>
<path fill="none" stroke="black" d="M125.33,-424.54C125.54,-413.4 125.83,-398.33 126.11,-383.86"/>
<polygon fill="black" stroke="black" points="129.61,-384.06 126.3,-373.99 122.61,-383.92 129.61,-384.06"/>
</g>
<!-- fib_BB2 -->
<g id="node5" class="node">
<title>fib_BB2</title>
<polygon fill="none" stroke="black" points="91.12,-212.25 91.12,-248.25 164.88,-248.25 164.88,-212.25 91.12,-212.25"/>
<text text-anchor="middle" x="128" y="-224.82" font-family="Times New Roman,serif" font-size="14.00">[2 &#45; begin]</text>
</g>
<!-- fib_BB1&#45;&gt;fib_BB2 -->
<g id="edge3" class="edge">
<title>fib_BB1&#45;&gt;fib_BB2</title>
<path fill="none" stroke="black" d="M127.33,-300.79C127.46,-287.5 127.6,-272.51 127.73,-259.86"/>
<polygon fill="black" stroke="black" points="131.22,-260.12 127.82,-250.09 124.22,-260.05 131.22,-260.12"/>
</g>
<!-- fib_BB3 -->
<g id="node6" class="node">
<title>fib_BB3</title>
<polygon fill="none" stroke="black" points="16,-112.12 16,-151.62 80,-151.62 80,-112.12 16,-112.12"/>
<text text-anchor="middle" x="48" y="-134.32" font-family="Times New Roman,serif" font-size="14.00">[3 &#45; end]</text>
<text text-anchor="start" x="24" y="-118.58" font-family="Times New Roman,serif" font-size="14.00">ret b</text>
</g>
<!-- fib_BB2&#45;&gt;fib_BB3 -->
<g id="edge4" class="edge">
<title>fib_BB2&#45;&gt;fib_BB3</title>
<path fill="none" stroke="black" d="M113.7,-212.02C101.87,-197.77 84.83,-177.25 71.08,-160.67"/>
<polygon fill="black" stroke="black" points="73.87,-158.56 64.79,-153.1 68.48,-163.03 73.87,-158.56"/>
</g>
<!-- fib_BB4 -->
<g id="node7" class="node">
<title>fib_BB4</title>
<polygon fill="none" stroke="black" points="97.75,-88.5 97.75,-175.25 166.25,-175.25 166.25,-88.5 97.75,-88.5"/>
<text text-anchor="middle" x="132" y="-157.95" font-family="Times New Roman,serif" font-size="14.00">[4]</text>
<text text-anchor="start" x="105.75" y="-142.2" font-family="Times New Roman,serif" font-size="14.00">t = b</text>
<text text-anchor="start" x="105.75" y="-126.45" font-family="Times New Roman,serif" font-size="14.00">b = a + b</text>
<text text-anchor="start" x="105.75" y="-110.7" font-family="Times New Roman,serif" font-size="14.00">a = t</text>
<text text-anchor="start" x="105.75" y="-94.95" font-family="Times New Roman,serif" font-size="14.00">i = i + 1</text>
</g>
<!-- fib_BB2&#45;&gt;fib_BB4 -->
<g id="edge5" class="edge">
<title>fib_BB2&#45;&gt;fib_BB4</title>
<path fill="none" stroke="black" d="M123.4,-212.02C122.91,-204.86 122.81,-196.13 123.05,-187.1"/>
<polygon fill="black" stroke="black" points="126.54,-187.26 123.45,-177.13 119.55,-186.98 126.54,-187.26"/>
</g>
<!-- fib_BB3&#45;&gt;fib_EXIT -->
<g id="edge6" class="edge">
<title>fib_BB3&#45;&gt;fib_EXIT</title>
<path fill="none" stroke="black" d="M48,-111.93C48,-98.1 48,-79.12 48,-63.47"/>
<polygon fill="black" stroke="black" points="51.5,-63.8 48,-53.8 44.5,-63.8 51.5,-63.8"/>
</g>
<!-- fib_BB4&#45;&gt;fib_BB2 -->
<g id="edge7" class="edge">
<title>fib_BB4&#45;&gt;fib_BB2</title>
<path fill="none" stroke="black" d="M136.94,-175.62C136.7,-184.15 136.18,-192.91 135.4,-200.82"/>
<polygon fill="black" stroke="black" points="131.95,-200.17 134.21,-210.52 138.9,-201.02 131.95,-200.17"/>
</g>
<!-- main_ENTRY -->
<g id="node8" class="node">
<title>main_ENTRY</title>
<ellipse fill="none" stroke="black" cx="248" cy="-515.25" rx="41.58" ry="18"/>
<text text-anchor="middle" x="248" y="-509.82" font-family="Times New Roman,serif" font-size="14.00">ENTRY</text>
</g>
<!-- main_BB0 -->
<g id="node10" class="node">
<title>main_BB0</title>
<polygon fill="none" stroke="black" points="221,-424.75 221,-460.75 275,-460.75 275,-424.75 221,-424.75"/>
<text text-anchor="middle" x="247.88" y="-437.32" font-family="Times New Roman,serif" font-size="14.00">[0]</text>
</g>
<!-- main_ENTRY&#45;&gt;main_BB0 -->
<g id="edge8" class="edge">
<title>main_ENTRY&#45;&gt;main_BB0</title>
<path fill="none" stroke="black" d="M248,-496.82C248,-489.48 248,-480.74 248,-472.49"/>
<polygon fill="black" stroke="black" points="251.5,-472.49 248,-462.49 244.5,-472.49 251.5,-472.49"/>
</g>
<!-- main_EXIT -->
<g id="node9" class="node">
<title>main_EXIT</title>
<ellipse fill="none" stroke="black" cx="248" cy="-230.25" rx="31.6" ry="18"/>
<text text-anchor="middle" x="248" y="-224.82" font-family="Times New Roman,serif" font-size="14.00">EXIT</text>
</g>
<!-- main_BB1 -->
<g id="node11" class="node">
<title>main_BB1</title>
<polygon fill="none" stroke="black" points="190.12,-285.25 190.12,-387.75 305.88,-387.75 305.88,-285.25 190.12,-285.25"/>
<text text-anchor="middle" x="248" y="-370.45" font-family="Times New Roman,serif" font-size="14.00">[1]</text>
<text text-anchor="start" x="198.12" y="-354.7" font-family="Times New Roman,serif" font-size="14.00">param 6</text>
<text text-anchor="start" x="198.12" y="-338.95" font-family="Times New Roman,serif" font-size="14.00">a = call fib, 1</text>
<text text-anchor="start" x="198.12" y="-323.2" font-family="Times New Roman,serif" font-size="14.00">param a</text>
<text text-anchor="start" x="198.12" y="-307.45" font-family="Times New Roman,serif" font-size="14.00">tmp = call print, 1</text>
<text text-anchor="start" x="198.12" y="-291.7" font-family="Times New Roman,serif" font-size="14.00">ret 0</text>
</g>
<!-- main_BB0&#45;&gt;main_BB1 -->
<g id="edge9" class="edge">
<title>main_BB0&#45;&gt;main_BB1</title>
<path fill="none" stroke="black" d="M248,-424.54C248,-417.38 248,-408.6 248,-399.4"/>
<polygon fill="black" stroke="black" points="251.5,-399.57 248,-389.57 244.5,-399.57 251.5,-399.57"/>
</g>
<!-- main_BB1&#45;&gt;main_EXIT -->
<g id="edge10" class="edge">
<title>main_BB1&#45;&gt;main_EXIT</title>
<path fill="none" stroke="black" d="M248,-284.9C248,-276.32 248,-267.69 248,-259.93"/>
<polygon fill="black" stroke="black" points="251.5,-260.1 248,-250.1 244.5,-260.1 251.5,-260.1"/>
</g>
</g>
</svg>
